<svg width="8" height="7" viewBox="0 0 8 7" fill="none" xmlns="http://www.w3.org/2000/svg">
<path d="M2.56501 4.47389L6.79817 0.199242C6.92971 0.0664138 7.09712 0 7.30041 0C7.5037 0 7.67111 0.0664138 7.80265 0.199242C7.93419 0.33207 7.99996 0.501124 7.99996 0.706404C7.99996 0.911683 7.93419 1.08074 7.80265 1.21357L3.06725 5.99538C2.92375 6.14028 2.75634 6.21273 2.56501 6.21273C2.37368 6.21273 2.20627 6.14028 2.06277 5.99538L0.197308 4.11163C0.0657692 3.97881 0 3.80975 0 3.60447C0 3.39919 0.0657692 3.23014 0.197308 3.09731C0.328847 2.96448 0.49626 2.89807 0.699548 2.89807C0.902835 2.89807 1.07025 2.96448 1.20179 3.09731L2.56501 4.47389Z" fill="white"/>
</svg>
