<svg width="375" height="450" viewBox="0 0 375 450" fill="none" xmlns="http://www.w3.org/2000/svg">
<rect width="375" height="450" fill="#EDEEF3"/>
<mask id="mask0_2_108" style="mask-type:alpha" maskUnits="userSpaceOnUse" x="165" y="203" width="45" height="45">
<rect x="165" y="203" width="44.3077" height="44.3077" fill="#D9D9D9"/>
</mask>
<g mask="url(#mask0_2_108)">
<path d="M174.231 243.615C172.693 243.615 171.385 243.077 170.308 242C169.231 240.923 168.693 239.615 168.693 238.077V212.23C168.693 210.692 169.231 209.384 170.308 208.307C171.385 207.23 172.693 206.692 174.231 206.692H200.077C201.616 206.692 202.924 207.23 204 208.307C205.077 209.384 205.616 210.692 205.616 212.23V238.077C205.616 239.615 205.077 240.923 204 242C202.924 243.077 201.616 243.615 200.077 243.615H174.231ZM174.231 239.923H200.077C200.6 239.923 201.039 239.745 201.392 239.391C201.746 239.038 201.924 238.6 201.924 238.077V212.23C201.924 211.707 201.746 211.269 201.392 210.914C201.039 210.561 200.6 210.384 200.077 210.384H174.231C173.708 210.384 173.269 210.561 172.915 210.914C172.562 211.269 172.385 211.707 172.385 212.23V238.077C172.385 238.6 172.562 239.038 172.915 239.391C173.269 239.745 173.708 239.923 174.231 239.923ZM176.077 236.23L183.462 228.846L186.785 232.123L190.847 227L198.231 236.23H176.077ZM179.77 221.461C178.754 221.461 177.885 221.099 177.163 220.376C176.439 219.653 176.077 218.784 176.077 217.769C176.077 216.753 176.439 215.885 177.163 215.162C177.885 214.438 178.754 214.077 179.77 214.077C180.785 214.077 181.655 214.438 182.378 215.162C183.101 215.885 183.462 216.753 183.462 217.769C183.462 218.784 183.101 219.653 182.378 220.376C181.655 221.099 180.785 221.461 179.77 221.461Z" fill="#5A6B87"/>
</g>
<path opacity="0.5" d="M173.992 428C175.648 428 176.985 429.343 176.978 431C176.972 432.657 175.625 434 173.969 434C172.313 434 170.975 432.657 170.982 431C170.988 429.343 172.336 428 173.992 428Z" fill="white"/>
<path opacity="0.5" d="M184.991 428C186.647 428 187.981 429.343 187.971 431C187.961 432.657 186.61 434 184.954 434C183.299 434 181.964 432.657 181.974 431C181.984 429.343 183.335 428 184.991 428Z" fill="white"/>
<path opacity="0.5" d="M207.002 428C208.658 428 209.992 429.343 209.982 431C209.972 432.657 208.621 434 206.965 434C205.309 434 203.975 432.657 203.985 431C203.995 429.343 205.346 428 207.002 428Z" fill="white"/>
<path opacity="0.5" d="M196 428C197.656 428 198.99 429.343 198.98 431C198.97 432.657 197.62 434 195.964 434C194.308 434 192.974 432.657 192.984 431C192.994 429.343 194.344 428 196 428Z" fill="white"/>
<path d="M162.998 428C164.654 428 165.997 429.343 165.997 431C165.997 432.657 164.654 434 162.998 434C161.342 434 160 432.657 160 431C160 429.343 161.342 428 162.998 428Z" fill="white"/>
</svg>
